<?xml version="1.0" encoding="UTF-8" standalone="no"?>
<svg
   xmlns:dc="http://purl.org/dc/elements/1.1/"
   xmlns:cc="http://creativecommons.org/ns#"
   xmlns:rdf="http://www.w3.org/1999/02/22-rdf-syntax-ns#"
   xmlns:svg="http://www.w3.org/2000/svg"
   xmlns="http://www.w3.org/2000/svg"
   xmlns:sodipodi="http://sodipodi.sourceforge.net/DTD/sodipodi-0.dtd"
   xmlns:inkscape="http://www.inkscape.org/namespaces/inkscape"
   version="1.0"
   id="Layer_1"
   x="0px"
   y="0px"
   width="80.845001"
   height="99.999001"
   viewBox="0 0 80.845 99.999001"
   enable-background="new 0 0 80.845 100"
   xml:space="preserve"
   inkscape:version="0.47 r22583"
   sodipodi:docname="cpu.svg"
   inkscape:export-filename="/home/ralle/icon-palette/cpu_large.png"
   inkscape:export-xdpi="36.000359"
   inkscape:export-ydpi="36.000359"><metadata
   id="metadata2960"><rdf:RDF><cc:Work
       rdf:about=""><dc:format>image/svg+xml</dc:format><dc:type
         rdf:resource="http://purl.org/dc/dcmitype/StillImage" /><dc:title></dc:title></cc:Work></rdf:RDF></metadata><defs
   id="defs2958"><inkscape:perspective
     sodipodi:type="inkscape:persp3d"
     inkscape:vp_x="0 : 50 : 1"
     inkscape:vp_y="0 : 1000 : 0"
     inkscape:vp_z="80.845001 : 50 : 1"
     inkscape:persp3d-origin="40.422501 : 33.333333 : 1"
     id="perspective2962" /></defs><sodipodi:namedview
   pagecolor="#ffffff"
   bordercolor="#666666"
   borderopacity="1"
   objecttolerance="10"
   gridtolerance="10"
   guidetolerance="10"
   inkscape:pageopacity="0"
   inkscape:pageshadow="2"
   inkscape:window-width="1280"
   inkscape:window-height="772"
   id="namedview2956"
   showgrid="false"
   inkscape:zoom="2.3600236"
   inkscape:cx="-42.671618"
   inkscape:cy="49.998499"
   inkscape:window-x="0"
   inkscape:window-y="1"
   inkscape:window-maximized="1"
   inkscape:current-layer="Layer_1" />










<g
   id="g2916"
   transform="translate(-1.2253441e-6,0)"><g
     id="g2912">
	<path
   id="path2914"
   d="m 75.498,81.47 h -6.221 v 10.942 h 6.221 c 2.954,0 5.347,-2.393 5.347,-5.347 v -0.249 c 0,-2.954 -2.393,-5.346 -5.347,-5.346 z" />
</g><g
     id="g2920">
	<path
   id="path2918"
   d="m 75.498,63.091 h -6.221 v 10.947 h 6.221 c 2.954,0 5.347,-2.397 5.347,-5.352 v -0.249 c 0,-2.954 -2.393,-5.346 -5.347,-5.346 z" />
</g><g
     id="g2923">
	<path
   id="path2922"
   d="m 75.498,44.712 h -6.221 v 10.947 h 6.221 c 2.954,0 5.347,-2.393 5.347,-5.347 v -0.249 c 0,-2.954 -2.393,-5.351 -5.347,-5.351 z" />
</g><g
     id="g2924">
	<path
   id="path2926"
   d="M 75.498,26.338 H 69.277 V 37.28 h 6.221 c 2.954,0 5.347,-2.393 5.347,-5.347 v -0.249 c 0,-2.954 -2.393,-5.346 -5.347,-5.346 z" />
</g><g
     id="g2928">
	<path
   id="path2930"
   d="m 75.498,7.959 h -6.221 v 10.947 h 6.221 c 2.954,0 5.347,-2.393 5.347,-5.352 V 13.31 c 0,-2.954 -2.393,-5.351 -5.347,-5.351 z" />
</g><g
     id="g2932">
	<path
   id="path2934"
   d="m 5.347,81.47 h 6.221 V 92.412 H 5.347 C 2.393,92.412 0,90.02 0,87.065 V 86.816 C 0,83.862 2.393,81.47 5.347,81.47 z" />
</g><g
     id="g2936">
	<path
   id="path2938"
   d="m 5.347,63.091 h 6.221 V 74.038 H 5.347 C 2.393,74.038 0,71.641 0,68.687 v -0.249 c 0,-2.955 2.393,-5.347 5.347,-5.347 z" />
</g><g
     id="g2940">
	<path
   id="path2942"
   d="m 5.347,44.712 h 6.221 V 55.659 H 5.347 C 2.393,55.659 0,53.267 0,50.313 v -0.249 c 0,-2.955 2.393,-5.352 5.347,-5.352 z" />
</g><g
     id="g2944">
	<path
   id="path2946"
   d="m 5.347,26.338 h 6.221 V 37.28 H 5.347 C 2.393,37.28 0,34.888 0,31.934 V 31.685 C 0,28.73 2.393,26.338 5.347,26.338 z" />
</g><g
     id="g2948">
	<path
   id="path2950"
   d="m 5.347,7.959 h 6.221 V 18.906 H 5.347 C 2.393,18.906 0,16.514 0,13.555 V 13.311 C 0,10.356 2.393,7.959 5.347,7.959 z" />
</g><g
     id="g2952">
	<path
   id="path2954"
   d="M 61.318,0 H 19.526 C 17.329,0 15.547,1.782 15.547,3.979 V 96.02 c 0,2.197 1.782,3.979 3.979,3.979 h 41.792 c 2.197,0 3.979,-1.782 3.979,-3.979 V 3.979 C 65.298,1.782 63.516,0 61.318,0 z M 40.425,13.408 c -5.21,0 -9.429,-4.219 -9.429,-9.429 h 18.857 c 10e-4,5.21 -4.223,9.429 -9.428,9.429 z" />
</g></g>
</svg>