<?xml version="1.0" encoding="UTF-8" standalone="no"?>
<!-- Created with Inkscape (http://www.inkscape.org/) -->

<svg
   xmlns:dc="http://purl.org/dc/elements/1.1/"
   xmlns:cc="http://creativecommons.org/ns#"
   xmlns:rdf="http://www.w3.org/1999/02/22-rdf-syntax-ns#"
   xmlns:svg="http://www.w3.org/2000/svg"
   xmlns="http://www.w3.org/2000/svg"
   xmlns:sodipodi="http://sodipodi.sourceforge.net/DTD/sodipodi-0.dtd"
   xmlns:inkscape="http://www.inkscape.org/namespaces/inkscape"
   width="72"
   height="72"
   id="svg2"
   version="1.1"
   inkscape:version="0.47 r22583"
   sodipodi:docname="platforminstance.svg"
   inkscape:export-filename="/home/ralle/icon-palette/box.png"
   inkscape:export-xdpi="41.341606"
   inkscape:export-ydpi="41.341606">
  <defs
     id="defs4">
    <inkscape:perspective
       id="perspective3639"
       inkscape:persp3d-origin="-102.80209 : 44.24151 : 1"
       inkscape:vp_z="-289.15722 : -179.11744 : 0"
       inkscape:vp_y="1.6676445e-14 : 272.35599 : 0"
       inkscape:vp_x="410.11138 : -1.00445e-13 : 0"
       sodipodi:type="inkscape:persp3d" />
    <inkscape:perspective
       sodipodi:type="inkscape:persp3d"
       inkscape:vp_x="410.11138 : -1.00445e-13 : 0"
       inkscape:vp_y="1.6676445e-14 : 272.35599 : 0"
       inkscape:vp_z="-289.15722 : -179.11744 : 0"
       inkscape:persp3d-origin="-103.26534 : 1029.5374 : 1"
       id="perspective10" />
    <inkscape:perspective
       id="perspective3724"
       inkscape:persp3d-origin="0.5 : 0.33333333 : 1"
       inkscape:vp_z="1 : 0.5 : 1"
       inkscape:vp_y="0 : 1000 : 0"
       inkscape:vp_x="0 : 0.5 : 1"
       sodipodi:type="inkscape:persp3d" />
    <inkscape:perspective
       id="perspective3746"
       inkscape:persp3d-origin="0.5 : 0.33333333 : 1"
       inkscape:vp_z="1 : 0.5 : 1"
       inkscape:vp_y="0 : 1000 : 0"
       inkscape:vp_x="0 : 0.5 : 1"
       sodipodi:type="inkscape:persp3d" />
    <inkscape:perspective
       id="perspective3770"
       inkscape:persp3d-origin="0.5 : 0.33333333 : 1"
       inkscape:vp_z="1 : 0.5 : 1"
       inkscape:vp_y="0 : 1000 : 0"
       inkscape:vp_x="0 : 0.5 : 1"
       sodipodi:type="inkscape:persp3d" />
  </defs>
  <sodipodi:namedview
     id="base"
     pagecolor="#ffffff"
     bordercolor="#666666"
     borderopacity="1.0"
     inkscape:pageopacity="0.0"
     inkscape:pageshadow="2"
     inkscape:zoom="5.6"
     inkscape:cx="8.9193271"
     inkscape:cy="13.803029"
     inkscape:document-units="px"
     inkscape:current-layer="layer1"
     showgrid="false"
     inkscape:window-width="1280"
     inkscape:window-height="772"
     inkscape:window-x="0"
     inkscape:window-y="1"
     inkscape:window-maximized="1" />
  <metadata
     id="metadata7">
    <rdf:RDF>
      <cc:Work
         rdf:about="">
        <dc:format>image/svg+xml</dc:format>
        <dc:type
           rdf:resource="http://purl.org/dc/dcmitype/StillImage" />
        <dc:title></dc:title>
      </cc:Work>
    </rdf:RDF>
  </metadata>
  <g
     inkscape:label="Ebene 1"
     inkscape:groupmode="layer"
     id="layer1"
     transform="translate(-301.94556,-767.19024)">
    <path
       id="path2823"
       style="fill:#8686bf;fill-opacity:1;fill-rule:evenodd;stroke:#000000;stroke-width:1.29245949;stroke-linecap:butt;stroke-miterlimit:3;stroke-opacity:1;stroke-dasharray:none"
       d="m 371.83608,772.77021 -41.73627,0 0,45.08727 41.73627,0 z" />
    <path
       id="path2825"
       style="fill:#ffffff;fill-opacity:1;stroke:#000000;stroke-width:1.29245949;stroke-linecap:butt;stroke-miterlimit:3;stroke-opacity:1;stroke-dasharray:none"
       d="m 330.09981,772.77021 0,45.08727 -27.04477,16.75279 0,-45.08727 z" />
    <path
       id="path2827"
       style="fill:#afafde;fill-opacity:1;fill-rule:evenodd;stroke:#000000;stroke-width:1.29245949;stroke-linecap:butt;stroke-miterlimit:3;stroke-opacity:1;stroke-dasharray:none"
       d="m 371.83608,817.85748 -41.73627,0 -27.04477,16.75279 41.73627,0 z" />
    <path
       id="path2829"
       style="fill:#8c8c8c;fill-opacity:1;stroke:#000000;stroke-width:1.29245949;stroke-linecap:butt;stroke-miterlimit:3;stroke-opacity:1;stroke-dasharray:none"
       d="m 371.83608,772.77021 -41.73627,0 -27.04477,16.75279 41.73627,0 z" />
    <path
       id="path2831"
       style="fill:#8c8c8c;fill-opacity:1;fill-rule:evenodd;stroke:#000000;stroke-width:1.29245949;stroke-linecap:butt;stroke-miterlimit:3;stroke-opacity:1;stroke-dasharray:none"
       d="m 371.83608,772.77021 0,45.08727 -27.04477,16.75279 0,-45.08727 z" />
    <path
       id="path2833"
       style="fill:#ffffff;fill-opacity:1;stroke:#000000;stroke-width:1.29245949;stroke-linecap:butt;stroke-miterlimit:3;stroke-opacity:1;stroke-dasharray:none"
       d="m 344.79131,789.523 -41.73627,0 0,45.08727 41.73627,0 z" />
    <path
       style="fill:#888888;fill-opacity:1;stroke:#000000;stroke-width:0.5;stroke-linecap:butt;stroke-miterlimit:4;stroke-opacity:1;stroke-dasharray:none"
       d="m 332.51695,793.50411 c -3.64902,0 -6.59375,2.98917 -6.59375,6.6875 0,1.30792 0.36251,2.52776 1,3.5625 l -0.46875,0.6875 -0.0312,-0.0312 -0.125,0.21875 -1.71875,2.5 -5.09375,7.4375 -2.09375,3 c -0.64779,-0.21707 -1.34271,-0.34375 -2.0625,-0.34375 -3.64902,0 -6.59375,3.02041 -6.59375,6.71875 0,0.80901 0.14788,1.59523 0.40625,2.3125 l 3.53125,-4.375 c 0.18415,-0.39388 0.46968,-0.74605 0.8125,-1.03125 l 0.0937,-0.0937 0.0312,0.0312 c 0.57047,-0.43476 1.28947,-0.71875 2.09375,-0.71875 1.81102,0 3.28125,1.33032 3.28125,2.96875 0,0.57529 -0.18671,1.10777 -0.5,1.5625 l 0.0625,0.0625 -4.6875,5.8125 c 0.46929,0.10715 0.96701,0.15625 1.46875,0.15625 3.64902,0 6.59375,-2.98917 6.59375,-6.6875 0,-1.30792 -0.36251,-2.52776 -1,-3.5625 l 0.46875,-0.6875 0.0312,0.0312 0.125,-0.21875 1.71875,-2.5 5.09375,-7.4375 2.09375,-3 c 0.64779,0.21707 1.34271,0.34375 2.0625,0.34375 3.64902,0 6.59375,-3.02041 6.59375,-6.71875 0,-0.80901 -0.14788,-1.59523 -0.40625,-2.3125 l -3.53125,4.375 c -0.18415,0.39388 -0.46968,0.74605 -0.8125,1.03125 l -0.0937,0.0937 -0.0312,-0.0312 c -0.57047,0.43476 -1.28947,0.71875 -2.09375,0.71875 -1.81102,0 -3.28125,-1.33032 -3.28125,-2.96875 0,-0.57529 0.18671,-1.10777 0.5,-1.5625 l -0.0625,-0.0625 4.6875,-5.8125 c -0.46929,-0.10715 -0.96701,-0.15625 -1.46875,-0.15625 z"
       id="path3634-2" />
  </g>
</svg>
