<?xml version="1.0" encoding="utf-8"?>
<!DOCTYPE svg PUBLIC "-//W3C//DTD SVG 1.1//EN" "http://www.w3.org/Graphics/SVG/1.1/DTD/svg11.dtd">
<svg version="1.1" id="handtablet" xmlns="http://www.w3.org/2000/svg" xmlns:xlink="http://www.w3.org/1999/xlink" x="0px" y="0px"
	 viewBox="34.2117 164.486 522.1217 441.9729" enable-background="new 34.2117 164.486 522.1217 441.9729" xml:space="preserve">
<g>
	<path fill="#FCE3CD" d="M529.14,542.7c-0.064-0.832-0.171-1.676-0.331-2.532l-2.7-14.491c-2.418-12.977-2.198-34.168,0.489-47.091
		l14.367-69.097c2.687-12.924,4.886-27.635,4.886-32.693c0-5.057-1.552-9.195-3.448-9.195s-9.439-8.986-16.761-19.969l-21.65-32.475
		c-7.322-10.983-19.261-16.09-26.531-11.349s-11.1,19.211-8.512,32.155l2.081,10.403c2.589,12.944,1.386,33.811-2.672,46.372
		l-9.381,29.037c-4.058,12.561-4.114,33.133-0.125,45.715l0.435,1.371c3.99,12.583,8.789,33.568,10.666,46.634l3.521,24.511
		l4.08,59.999h71.155l-19.58-57.29L529.14,542.7z"/>
	<path fill="#FCE3CD" d="M148.58,417.6c-4.741-9.483-11.207-24.741-14.368-33.908s-12.213-21.839-20.115-28.161
		c-7.902-6.322-10.23-17.443-5.172-24.713c5.057-7.27,9.195-17.615,9.195-22.989c0-5.373-3.879-9.77-8.621-9.77
		c-4.741,0-15.198,8.566-23.237,19.036L66.07,343.392c-8.039,10.47-14.617,22.398-14.617,26.507s2.885,17.879,6.412,30.599
		l19.361,69.836c3.526,12.72,3.405,33.501-0.269,46.179l-6.179,21.322c-0.358,1.236-0.604,2.45-0.75,3.635l-28.192,58.52h68.608
		l17.018-56.134l-0.943-0.102c1.067-1.929,1.912-3.954,2.479-6.043l6.972-25.698c3.456-12.74,9.646-26.783,13.755-31.209
		s7.471-16.58,7.471-27.012c0.01-10.44-3.87-26.73-8.61-36.21L148.58,417.6z"/>
	<path fill="#414042" stroke="#414042" stroke-miterlimit="10" d="M498.72,455.48c0,13.2-10.8,24-24,24H128.47
		c-13.2,0-24-10.8-24-24V195.44c0-13.2,10.8-24,24-24h346.25c13.2,0,24,10.8,24,24V455.48z"/>
	
		<radialGradient id="SVGID_1_" cx="301.59" cy="277.69" r="184.8672" gradientTransform="matrix(1 0 0 -1 0 602)" gradientUnits="userSpaceOnUse">
		<stop  offset="0" style="stop-color:#FFFFFF"/>
		<stop  offset="1" style="stop-color:#D0D2D3"/>
	</radialGradient>
	<rect x="136.65" y="202.28" fill="url(#SVGID_1_)" width="329.88" height="244.06"/>
	<path fill="#FCE3CD" d="M521.38,421.08c7.794-4.825,6.514-16.389-2.845-25.698l-1.152-1.146
		c-9.359-9.309-24.47-24.74-33.581-34.292l-13.082-13.715c-9.111-9.551-20.283-13.544-24.826-8.873s-4.481,14.599,0.138,22.061
		s14.169,17.975,21.222,23.362s14.666,14.738,16.918,20.778c2.253,6.041,8.357,14.428,13.566,18.639
		c5.19,4.22,15.83,3.72,23.63-1.11L521.38,421.08z"/>
	<path fill="#FCE3CD" d="M81.55,418.74c-7.794-4.825-6.514-16.389,2.845-25.698l1.152-1.146c9.359-9.309,24.47-24.74,33.581-34.292
		l13.082-13.714c9.111-9.551,20.283-13.544,24.826-8.873s4.481,14.599-0.138,22.061s-14.169,17.975-21.222,23.362
		s-14.666,14.737-16.918,20.778c-2.253,6.041-8.357,14.428-13.566,18.639s-15.845,3.7-23.64-1.12L81.55,418.74z"/>
	<path fill="#F9CEA7" d="M454.49,338.49c0,0-7.76,4.542-6.707,8.667c0,0,2.997,6.276,7.092,6.384l8.653-9.237
		c0.01,0.01-6.52-7.55-9.03-5.81L454.49,338.49z"/>
	<path fill="#F9CEA7" d="M148.77,337.03c0,0,6.842,5.834,5.081,9.71c0,0-4.052,5.652-8.103,5.04l-6.896-10.613
		c0,0,7.75-6.3,9.92-4.14L148.77,337.03z"/>
	<path fill="#F9CEA7" d="M136.65,482.81c0,0-34.908,8-37.575-28.667c0.005,0-6.179,42.67,37.575,28.67V482.81z"/>
	<path fill="#F9CEA7" d="M63.08,353.26c0,0-17.333,13.108-3.333,42.996c-0.001-0.01-9.334-28.56,3.333-43V353.26z"/>
	<path fill="#F9CEA7" d="M532.34,360.1c0,0,18.318,11.694,6.73,42.597c0,0,7.04-29.2-6.73-42.6V360.1z"/>
	<path fill="#F9CEA7" d="M465.54,482.81c0,0,34.908,8,37.575-28.667c-0.01,0,6.18,42.67-37.58,28.67L465.54,482.81z"/>
</g>
</svg>
