<?xml version="1.0" encoding="UTF-8" standalone="no"?>
<!-- Created with Inkscape (http://www.inkscape.org/) -->

<svg
   xmlns:dc="http://purl.org/dc/elements/1.1/"
   xmlns:cc="http://creativecommons.org/ns#"
   xmlns:rdf="http://www.w3.org/1999/02/22-rdf-syntax-ns#"
   xmlns:svg="http://www.w3.org/2000/svg"
   xmlns="http://www.w3.org/2000/svg"
   xmlns:sodipodi="http://sodipodi.sourceforge.net/DTD/sodipodi-0.dtd"
   xmlns:inkscape="http://www.inkscape.org/namespaces/inkscape"
   width="210mm"
   height="297mm"
   viewBox="0 0 744.09448819 1052.3622047"
   id="svg4212"
   version="1.1"
   inkscape:version="0.91 r13725"
   inkscape:export-filename="/home/dylanbaker/Pictures/phone.png"
   inkscape:export-xdpi="90"
   inkscape:export-ydpi="90"
   sodipodi:docname="phone.svg">
  <defs
     id="defs4214" />
  <sodipodi:namedview
     id="base"
     pagecolor="#ffffff"
     bordercolor="#666666"
     borderopacity="1.0"
     inkscape:pageopacity="0.0"
     inkscape:pageshadow="2"
     inkscape:zoom="0.7"
     inkscape:cx="726.56755"
     inkscape:cy="533.09537"
     inkscape:document-units="px"
     inkscape:current-layer="layer1"
     showgrid="false"
     showguides="true"
     inkscape:guide-bbox="true"
     inkscape:window-width="1680"
     inkscape:window-height="1006"
     inkscape:window-x="1920"
     inkscape:window-y="0"
     inkscape:window-maximized="1"
     inkscape:snap-global="true" />
  <metadata
     id="metadata4217">
    <rdf:RDF>
      <cc:Work
         rdf:about="">
        <dc:format>image/svg+xml</dc:format>
        <dc:type
           rdf:resource="http://purl.org/dc/dcmitype/StillImage" />
        <dc:title />
      </cc:Work>
    </rdf:RDF>
  </metadata>
  <g
     inkscape:label="Layer 1"
     inkscape:groupmode="layer"
     id="layer1">
    <rect
       style="opacity:1;fill:#333333;fill-opacity:1;stroke:#000000;stroke-width:0;stroke-miterlimit:4;stroke-dasharray:none;stroke-opacity:0.84444424"
       id="rect4760"
       width="474.7717"
       height="822.26416"
       x="147.48227"
       y="165.44827"
       ry="71.720818"
       rx="80.812202" />
    <rect
       style="opacity:1;fill:#ffffff;fill-opacity:1;stroke:#000000;stroke-width:0;stroke-miterlimit:4;stroke-dasharray:none;stroke-opacity:0.84444424"
       id="rect4762"
       width="454.56866"
       height="804.0813"
       x="157.58379"
       y="171.50919"
       rx="80.812202"
       ry="71.720802" />
    <rect
       style="opacity:1;fill:#d6d6d6;fill-opacity:1;stroke:#000000;stroke-width:5;stroke-miterlimit:4;stroke-dasharray:none;stroke-opacity:0.84444424"
       id="rect4764"
       width="428.30469"
       height="680.8429"
       x="171.72594"
       y="238.17924"
       rx="0"
       ry="0" />
    <rect
       style="opacity:1;fill:#333333;fill-opacity:1;stroke:#000000;stroke-width:0;stroke-miterlimit:4;stroke-dasharray:none;stroke-opacity:0.84444424"
       id="rect4766"
       width="128.5714"
       height="40.000008"
       x="324.28574"
       y="926.64795"
       ry="14.285719"
       rx="20" />
    <rect
       style="opacity:1;fill:#ffffff;fill-opacity:1;stroke:#000000;stroke-width:0;stroke-miterlimit:4;stroke-dasharray:none;stroke-opacity:0.84444424"
       id="rect4768"
       width="119.99998"
       height="32.857136"
       x="328.57144"
       y="930.93365"
       rx="20"
       ry="0" />
    <path
       style="opacity:1;fill:#000000;fill-opacity:1;stroke:#000000;stroke-width:0;stroke-miterlimit:4;stroke-dasharray:none;stroke-opacity:0.84444424"
       id="path4770"
       sodipodi:type="arc"
       sodipodi:cx="524.82141"
       sodipodi:cy="190.21938"
       sodipodi:rx="13.035692"
       sodipodi:ry="12.142811"
       sodipodi:start="0"
       sodipodi:end="6.2059021"
       sodipodi:open="true"
       d="m 537.8571,190.21938 a 13.035692,12.142811 0 0 1 -12.78384,12.14054 13.035692,12.142811 0 0 1 -13.27781,-11.67144 13.035692,12.142811 0 0 1 12.2708,-12.59152 13.035692,12.142811 0 0 1 13.75194,11.18491" />
    <path
       style="opacity:1;fill:#000000;fill-opacity:1;stroke:#000000;stroke-width:0;stroke-miterlimit:4;stroke-dasharray:none;stroke-opacity:0.84444424"
       id="path4772"
       sodipodi:type="arc"
       sodipodi:cx="474.09537"
       sodipodi:cy="185.96426"
       sodipodi:rx="5"
       sodipodi:ry="4.8214288"
       sodipodi:start="0"
       sodipodi:end="6.2059021"
       sodipodi:open="true"
       d="m 479.09537,185.96426 a 5,4.8214288 0 0 1 -4.9034,4.82053 5,4.8214288 0 0 1 -5.09287,-4.63426 5,4.8214288 0 0 1 4.70662,-4.9996 5,4.8214288 0 0 1 5.27472,4.44109" />
    <path
       d="m 454.8508,186.03824 a 5,4.8214288 0 0 1 -4.9034,4.82053 5,4.8214288 0 0 1 -5.09287,-4.63427 5,4.8214288 0 0 1 4.70662,-4.99959 5,4.8214288 0 0 1 5.27473,4.44108"
       sodipodi:open="true"
       sodipodi:end="6.2059021"
       sodipodi:start="0"
       sodipodi:ry="4.8214288"
       sodipodi:rx="5"
       sodipodi:cy="186.03824"
       sodipodi:cx="449.8508"
       sodipodi:type="arc"
       id="path4774"
       style="opacity:1;fill:#000000;fill-opacity:1;stroke:#000000;stroke-width:0;stroke-miterlimit:4;stroke-dasharray:none;stroke-opacity:0.84444424" />
    <rect
       style="opacity:1;fill:#808080;fill-opacity:1;stroke:#000000;stroke-width:0;stroke-miterlimit:4;stroke-dasharray:none;stroke-opacity:0.84444424"
       id="rect4778"
       width="110.71429"
       height="15.231549"
       x="319.28574"
       y="185.70209"
       ry="7.6157746"
       rx="9.9999952" />
    <path
       style="opacity:1;fill:#000000;fill-opacity:1;stroke:#000000;stroke-width:0;stroke-miterlimit:4;stroke-dasharray:none;stroke-opacity:0.8444443"
       id="path4783"
       sodipodi:type="arc"
       sodipodi:cx="331.4563"
       sodipodi:cy="193.48"
       sodipodi:rx="2.9041886"
       sodipodi:ry="2.7779195"
       sodipodi:start="0"
       sodipodi:end="6.2059021"
       sodipodi:open="true"
       d="m 334.36049,193.48 a 2.9041886,2.7779195 0 0 1 -2.84808,2.7774 2.9041886,2.7779195 0 0 1 -2.95813,-2.67009 2.9041886,2.7779195 0 0 1 2.73378,-2.88057 2.9041886,2.7779195 0 0 1 3.06376,2.55878" />
    <path
       d="m 341.93663,193.22746 a 2.9041886,2.7779195 0 0 1 -2.84808,2.7774 2.9041886,2.7779195 0 0 1 -2.95813,-2.67008 2.9041886,2.7779195 0 0 1 2.73378,-2.88057 2.9041886,2.7779195 0 0 1 3.06376,2.55878"
       sodipodi:open="true"
       sodipodi:end="6.2059021"
       sodipodi:start="0"
       sodipodi:ry="2.7779195"
       sodipodi:rx="2.9041886"
       sodipodi:cy="193.22746"
       sodipodi:cx="339.03244"
       sodipodi:type="arc"
       id="path4785"
       style="opacity:1;fill:#000000;fill-opacity:1;stroke:#000000;stroke-width:0;stroke-miterlimit:4;stroke-dasharray:none;stroke-opacity:0.84444424" />
    <path
       style="opacity:1;fill:#000000;fill-opacity:1;stroke:#000000;stroke-width:0;stroke-miterlimit:4;stroke-dasharray:none;stroke-opacity:0.84444424"
       id="path4787"
       sodipodi:type="arc"
       sodipodi:cx="346.60858"
       sodipodi:cy="193.48"
       sodipodi:rx="2.9041886"
       sodipodi:ry="2.7779195"
       sodipodi:start="0"
       sodipodi:end="6.2059021"
       sodipodi:open="true"
       d="m 349.51277,193.48 a 2.9041886,2.7779195 0 0 1 -2.84808,2.7774 2.9041886,2.7779195 0 0 1 -2.95813,-2.67009 2.9041886,2.7779195 0 0 1 2.73378,-2.88057 2.9041886,2.7779195 0 0 1 3.06376,2.55878" />
    <path
       d="m 356.83638,193.73253 a 2.9041886,2.7779195 0 0 1 -2.84808,2.7774 2.9041886,2.7779195 0 0 1 -2.95813,-2.67008 2.9041886,2.7779195 0 0 1 2.73378,-2.88058 2.9041886,2.7779195 0 0 1 3.06376,2.55879"
       sodipodi:open="true"
       sodipodi:end="6.2059021"
       sodipodi:start="0"
       sodipodi:ry="2.7779195"
       sodipodi:rx="2.9041886"
       sodipodi:cy="193.73253"
       sodipodi:cx="353.93219"
       sodipodi:type="arc"
       id="path4789"
       style="opacity:1;fill:#000000;fill-opacity:1;stroke:#000000;stroke-width:0;stroke-miterlimit:4;stroke-dasharray:none;stroke-opacity:0.84444424" />
    <path
       style="opacity:1;fill:#000000;fill-opacity:1;stroke:#000000;stroke-width:0;stroke-miterlimit:4;stroke-dasharray:none;stroke-opacity:0.84444424"
       id="path4791"
       sodipodi:type="arc"
       sodipodi:cx="361.2558"
       sodipodi:cy="193.48"
       sodipodi:rx="2.9041886"
       sodipodi:ry="2.7779195"
       sodipodi:start="0"
       sodipodi:end="6.2059021"
       sodipodi:open="true"
       d="m 364.15999,193.48 a 2.9041886,2.7779195 0 0 1 -2.84808,2.7774 2.9041886,2.7779195 0 0 1 -2.95813,-2.67009 2.9041886,2.7779195 0 0 1 2.73378,-2.88057 2.9041886,2.7779195 0 0 1 3.06376,2.55878" />
    <path
       d="m 370.97853,193.48 a 2.9041886,2.7779195 0 0 1 -2.84808,2.7774 2.9041886,2.7779195 0 0 1 -2.95813,-2.67009 2.9041886,2.7779195 0 0 1 2.73378,-2.88057 2.9041886,2.7779195 0 0 1 3.06376,2.55878"
       sodipodi:open="true"
       sodipodi:end="6.2059021"
       sodipodi:start="0"
       sodipodi:ry="2.7779195"
       sodipodi:rx="2.9041886"
       sodipodi:cy="193.48"
       sodipodi:cx="368.07434"
       sodipodi:type="arc"
       id="path4793"
       style="opacity:1;fill:#000000;fill-opacity:1;stroke:#000000;stroke-width:0;stroke-miterlimit:4;stroke-dasharray:none;stroke-opacity:0.84444424" />
    <path
       style="opacity:1;fill:#000000;fill-opacity:1;stroke:#000000;stroke-width:0;stroke-miterlimit:4;stroke-dasharray:none;stroke-opacity:0.84444424"
       id="path4795"
       sodipodi:type="arc"
       sodipodi:cx="374.89288"
       sodipodi:cy="193.22746"
       sodipodi:rx="2.9041886"
       sodipodi:ry="2.7779195"
       sodipodi:start="0"
       sodipodi:end="6.2059021"
       sodipodi:open="true"
       d="m 377.79707,193.22746 a 2.9041886,2.7779195 0 0 1 -2.84808,2.7774 2.9041886,2.7779195 0 0 1 -2.95813,-2.67008 2.9041886,2.7779195 0 0 1 2.73378,-2.88057 2.9041886,2.7779195 0 0 1 3.06376,2.55878" />
    <path
       d="m 384.61561,193.22746 a 2.9041886,2.7779195 0 0 1 -2.84808,2.7774 2.9041886,2.7779195 0 0 1 -2.95812,-2.67008 2.9041886,2.7779195 0 0 1 2.73378,-2.88057 2.9041886,2.7779195 0 0 1 3.06376,2.55878"
       sodipodi:open="true"
       sodipodi:end="6.2059021"
       sodipodi:start="0"
       sodipodi:ry="2.7779195"
       sodipodi:rx="2.9041886"
       sodipodi:cy="193.22746"
       sodipodi:cx="381.71143"
       sodipodi:type="arc"
       id="path4797"
       style="opacity:1;fill:#000000;fill-opacity:1;stroke:#000000;stroke-width:0;stroke-miterlimit:4;stroke-dasharray:none;stroke-opacity:0.84444424" />
    <path
       style="opacity:1;fill:#000000;fill-opacity:1;stroke:#000000;stroke-width:0;stroke-miterlimit:4;stroke-dasharray:none;stroke-opacity:0.84444424"
       id="path4799"
       sodipodi:type="arc"
       sodipodi:cx="388.7825"
       sodipodi:cy="193.22746"
       sodipodi:rx="2.9041886"
       sodipodi:ry="2.7779195"
       sodipodi:start="0"
       sodipodi:end="6.2059021"
       sodipodi:open="true"
       d="m 391.68669,193.22746 a 2.9041886,2.7779195 0 0 1 -2.84808,2.7774 2.9041886,2.7779195 0 0 1 -2.95813,-2.67008 2.9041886,2.7779195 0 0 1 2.73378,-2.88057 2.9041886,2.7779195 0 0 1 3.06376,2.55878" />
    <path
       d="m 399.51539,192.97491 a 2.9041886,2.7779195 0 0 1 -2.84808,2.77741 2.9041886,2.7779195 0 0 1 -2.95812,-2.67009 2.9041886,2.7779195 0 0 1 2.73378,-2.88057 2.9041886,2.7779195 0 0 1 3.06376,2.55878"
       sodipodi:open="true"
       sodipodi:end="6.2059021"
       sodipodi:start="0"
       sodipodi:ry="2.7779195"
       sodipodi:rx="2.9041886"
       sodipodi:cy="192.97491"
       sodipodi:cx="396.61121"
       sodipodi:type="arc"
       id="path4801"
       style="opacity:1;fill:#000000;fill-opacity:1;stroke:#000000;stroke-width:0;stroke-miterlimit:4;stroke-dasharray:none;stroke-opacity:0.84444424" />
    <path
       style="opacity:1;fill:#000000;fill-opacity:1;stroke:#000000;stroke-width:0;stroke-miterlimit:4;stroke-dasharray:none;stroke-opacity:0.84444424"
       id="path4803"
       sodipodi:type="arc"
       sodipodi:cx="403.68228"
       sodipodi:cy="193.22745"
       sodipodi:rx="2.9041886"
       sodipodi:ry="2.7779195"
       sodipodi:start="0"
       sodipodi:end="6.2059021"
       sodipodi:open="true"
       d="m 406.58647,193.22745 a 2.9041886,2.7779195 0 0 1 -2.84808,2.7774 2.9041886,2.7779195 0 0 1 -2.95813,-2.67009 2.9041886,2.7779195 0 0 1 2.73378,-2.88057 2.9041886,2.7779195 0 0 1 3.06376,2.55878" />
    <path
       d="m 413.15245,193.22745 a 2.9041886,2.7779195 0 0 1 -2.84808,2.7774 2.9041886,2.7779195 0 0 1 -2.95813,-2.67009 2.9041886,2.7779195 0 0 1 2.73378,-2.88057 2.9041886,2.7779195 0 0 1 3.06376,2.55878"
       sodipodi:open="true"
       sodipodi:end="6.2059021"
       sodipodi:start="0"
       sodipodi:ry="2.7779195"
       sodipodi:rx="2.9041886"
       sodipodi:cy="193.22745"
       sodipodi:cx="410.24826"
       sodipodi:type="arc"
       id="path4805"
       style="opacity:1;fill:#000000;fill-opacity:1;stroke:#000000;stroke-width:0;stroke-miterlimit:4;stroke-dasharray:none;stroke-opacity:0.84444424" />
    <path
       style="opacity:1;fill:#000000;fill-opacity:1;stroke:#000000;stroke-width:0;stroke-miterlimit:4;stroke-dasharray:none;stroke-opacity:0.84444424"
       id="path4807"
       sodipodi:type="arc"
       sodipodi:cx="417.0668"
       sodipodi:cy="192.97491"
       sodipodi:rx="2.9041886"
       sodipodi:ry="2.7779195"
       sodipodi:start="0"
       sodipodi:end="6.2059021"
       sodipodi:open="true"
       d="m 419.97099,192.97491 a 2.9041886,2.7779195 0 0 1 -2.84808,2.77741 2.9041886,2.7779195 0 0 1 -2.95813,-2.67009 2.9041886,2.7779195 0 0 1 2.73378,-2.88057 2.9041886,2.7779195 0 0 1 3.06376,2.55878" />
    <flowRoot
       xml:space="preserve"
       id="flowRoot4813"
       style="fill:black;stroke:none;stroke-opacity:1;stroke-width:1px;stroke-linejoin:miter;stroke-linecap:butt;fill-opacity:1;font-family:Sans;font-style:normal;font-weight:normal;font-size:40px;line-height:125%;letter-spacing:0px;word-spacing:0px"><flowRegion
         id="flowRegion4815"><rect
           id="rect4817"
           width="217.14285"
           height="92.85714"
           x="304.28571"
           y="172.3622" /></flowRegion><flowPara
         id="flowPara4819" /></flowRoot>  </g>
</svg>
